<?xml version="1.0" encoding="utf-8"?>
<!-- Generator: Adobe Illustrator 27.2.0, SVG Export Plug-In . SVG Version: 6.00 Build 0)  -->
<svg version="1.1" id="Capa_1" xmlns="http://www.w3.org/2000/svg" xmlns:xlink="http://www.w3.org/1999/xlink" x="0px" y="0px"
	 viewBox="0 0 500 500" style="enable-background:new 0 0 500 500;" xml:space="preserve">
<style type="text/css">
	.st0{display:none;}
	.st1{display:inline;fill:#B0B0B0;}
	.st2{display:inline;fill:#8F8F8F;}
	.st3{fill:#8F8F8F;}
	.st4{display:inline;}
</style>
<g class="st0">
	<path class="st1" d="M250.1,132.8c27.5,22.6,54.5,44.9,81.6,67.2c30.4,25.1,60.8,50.2,91.3,75.2c2.8,2.3,3.8,4.6,3.8,8.2
		c-0.1,47-0.1,94-0.1,140.9c0,14.4-8,22.5-22.4,22.5c-36.7,0-73.4,0-110.1,0c-1.4,0-2.8-0.1-4.8-0.2c0-39.1,0-77.9,0-117.1
		c-26.3,0-52.2,0-78.7,0c0,38.9,0,77.8,0,117.1c-2.2,0.1-3.8,0.2-5.4,0.2c-36.5,0-73,0-109.6,0c-14.7,0-22.5-8-22.5-22.8
		c0-46.8,0-93.6-0.1-140.5c0-3.7,1.1-6.1,4.1-8.5c56.1-46.1,112-92.2,168-138.4C246.8,135.4,248.3,134.2,250.1,132.8z"/>
	<path class="st1" d="M497.2,255.8c-6.3,7.7-12.6,15.3-18.9,23c-6.3,7.6-11.2,8-18.8,1.6C391.3,223.5,323,166.6,254.8,109.7
		c-1.5-1.2-3-2.4-4.9-3.9c-7.7,6.4-15.3,12.7-22.9,19.1c-62.3,51.9-124.6,103.9-186.8,155.8c-7.1,5.9-12.2,5.5-18.2-1.5
		c-5.1-6-10.2-12.1-15.2-18.1c-5.9-7.1-5.4-12.1,1.8-18.1c56.5-47.1,113-94.1,169.5-141.2c15.8-13.2,31.6-26.5,47.5-39.5
		c12.6-10.3,26.5-11.6,41.1-5c3.9,1.7,7.3,4.7,10.6,7.4c22.3,18.5,44.5,37.1,66.7,55.7c1.1,0.9,2.2,1.7,4.2,3.1c0-2.6,0-4.3,0-5.9
		c0-16.9,0-33.8,0-50.7c0-9.5,3.2-12.7,12.7-12.7c17.5,0,35.1,0,52.6,0c9.8,0,13.1,3.3,13.1,13c0,39.1,0.1,78.2-0.1,117.3
		c0,3.4,1,5.6,3.6,7.7c20.1,16.6,40.2,33.2,60.1,50c2.6,2.2,4.6,5.2,6.9,7.8C497.2,251.9,497.2,253.9,497.2,255.8z"/>
</g>
<g class="st0">
	<path class="st2" d="M281.8,496.6c-21.2,0-42.4,0-63.6,0c-7-2.5-10.5-7.6-12.1-14.7c-3.7-16.2-8-32.3-11.8-48.6
		c-0.8-3.3-2.4-4.7-5.3-5.9c-7.8-3-15.4-6.2-23-9.7c-2.9-1.3-5.1-1.4-7.9,0.3c-11.7,7.3-23.6,14.3-35.4,21.3
		c-9.4,5.6-15.2,4.9-22.8-2.7c-12.2-12.1-24.3-24.3-36.4-36.4c-7.5-7.5-8.2-13.4-2.9-22.4c7.2-12.1,14.5-24.2,21.8-36.3
		c1.4-2.3,1.5-4.1,0.4-6.6c-3.6-8-7-16.1-10.2-24.3c-1.1-2.9-2.6-4.3-5.6-5c-16.7-4-33.3-8.1-49.9-12.3c-9.7-2.4-13.5-7.2-13.5-17
		c0-17.5,0-35,0-52.5c0-10.2,3.7-15,13.6-17.4c16.6-4.2,33.3-8.3,49.9-12.3c2.8-0.7,4.3-1.8,5.4-4.6c2.6-7.1,5.5-14,8.5-20.9
		c1.1-2.5,1-4.3-0.4-6.6c-8.3-13.7-16.5-27.5-24.8-41.2c-5.4-9-4.6-15,2.7-22.4C70.6,86.3,82.7,74.1,94.9,62
		c7.7-7.7,13.3-8.4,22.7-2.8c13.2,7.9,26.3,15.9,39.7,23.6c1.7,1,4.6,1,6.5,0.3c8.6-3.4,17.1-7.3,25.7-10.7c2.9-1.1,4.2-2.8,4.9-5.7
		c4-16.7,8.1-33.3,12.3-49.9c2.3-9.4,7.2-13.3,16.7-13.3c17.8-0.1,35.6-0.1,53.4,0c9.5,0,14.4,3.9,16.8,13.3
		c4.2,16.8,8.4,33.6,12.4,50.4c0.7,2.9,2.1,4.2,4.7,5.3c7.8,3,15.5,6.2,23,9.6c2.9,1.3,5.1,1.4,7.9-0.3
		c12.3-7.6,24.7-14.9,37.1-22.3c9.7-5.8,15.2-5.2,23.1,2.8c12,12,24.1,24,36.1,36.1c7.8,7.8,8.5,13.4,2.9,22.7
		c-7.6,12.7-15.3,25.2-22.7,38c-1,1.7-1.1,4.6-0.3,6.5c3.1,8.1,6.7,15.9,9.8,24c1.1,2.9,2.8,4.2,5.7,4.9
		c16.2,3.9,32.3,8.1,48.6,11.8c7.1,1.6,12.2,5.1,14.7,12.1c0,21.2,0,42.4,0,63.6c-2.5,7-7.6,10.5-14.7,12.1
		c-16.2,3.8-32.3,8-48.5,11.8c-3,0.7-4.6,1.9-5.7,4.9c-3,7.8-6.2,15.4-9.6,23c-1.2,2.7-1.1,4.6,0.5,7c7.6,12.4,15.1,25,22.5,37.5
		c5.3,8.8,4.5,14.6-2.8,21.9c-12.2,12.3-24.5,24.5-36.7,36.8c-7.4,7.3-13.4,8-22.4,2.7c-12.2-7.3-24.5-14.6-36.7-22.1
		c-2.5-1.5-4.3-1.6-7-0.4c-8.1,3.7-16.4,7.2-24.7,10.5c-2.9,1.1-4.2,2.8-4.9,5.7c-3.8,16.2-8.1,32.3-11.8,48.6
		C292.3,489,288.8,494.1,281.8,496.6z M249.9,148.9c-55.6,0.1-101.1,45.7-101,101.2c0.1,55.6,45.7,101.1,101.2,101
		c55.6-0.1,101.1-45.7,101-101.2C351,194.3,305.5,148.8,249.9,148.9z"/>
</g>
<g class="st0">
	<path class="st2" d="M494,149.9c-2.4,7.5-7.7,12.9-13.2,18.1c-70.7,66.9-141.4,133.9-212,200.9c-7.3,6.9-15.3,11-25.4,7.7
		c-3.9-1.3-7.8-3.8-10.8-6.6c-72.7-68.7-145.4-137.6-218-206.4c-8.5-8.1-10.8-18.2-6.5-27.6c4.1-9,13.1-14.4,23.1-13.6
		c6.2,0.5,11.1,3.4,15.5,7.6c41,38.9,82.1,77.8,123.1,116.7c25.7,24.4,51.4,48.7,77.1,73.1c0.9,0.9,1.9,1.7,3,2.7
		c1.3-1.1,2.5-2.1,3.6-3.1c65.7-62.3,131.8-124.2,196.9-187c15.9-15.3,37.8-11.7,43.5,9.1C494,144.2,494,147,494,149.9z"/>
</g>
<g class="st0">
	<path class="st2" d="M402.1,4c7.1,1.9,14.4,3.2,21.2,5.8c34.7,13.4,56,48.9,51.7,85.6c-4.3,36.9-33,66.7-69.7,71.8
		c-25.8,3.6-48.4-3.7-67.7-21.2c-1.3-1.2-2.6-2.4-3.8-3.6c-0.1-0.1-0.3-0.1-0.9-0.4c-49,27.9-98.3,56-147.9,84.3
		c4.6,15.9,4.7,31.7,0,47.8c49.4,28.2,98.7,56.3,148.2,84.5c17.2-17.7,37.9-26.8,62.4-26.3c19.6,0.4,36.9,7.2,51.7,20.1
		c29.6,25.9,36.8,68.3,17.5,102.2C445.3,488.4,404.8,504,368,492c-33-10.8-64.7-46.4-54.6-97.6c-12.8-7.3-25.7-14.7-38.6-22
		c-35.7-20.4-71.5-40.7-107.1-61.2c-3.1-1.8-5-1.7-7.8,0.7c-24.6,20.5-52.4,25.9-82.2,14.6c-30.1-11.4-47.9-34-52.5-66.1
		c-4.8-33.9,12.3-66.5,42.8-82.9c29.6-15.9,66.5-11.7,91.9,10.4c2,1.7,3.4,3.3,6.5,1.5c48.9-28,97.8-55.9,146.8-83.8
		c-0.6-4.9-1.5-9.8-1.7-14.7c-1.9-44.1,27.2-79.5,70.9-86.2c0.8-0.1,1.5-0.5,2.2-0.8C390.6,4,396.3,4,402.1,4z"/>
</g>
<g class="st0">
	<path class="st1" d="M2.1,183.2c0-6.8,0-13.6,0-20.3c0.3-1.9,0.7-3.8,0.9-5.7c4.5-40.8,20.8-75.5,54.1-100.5
		c32.7-24.5,69.5-31.5,109-20.9c28.7,7.7,50.7,25.5,68.4,48.8c5.5,7.3,10.3,15,15.3,22.3c6.8-9.5,13-19.3,20.3-28.2
		c22.9-27.6,51.7-45,88.2-47.3c58.1-3.7,111.2,32.2,130,87.4c18,52.7,10.2,101.9-20.2,148c-17.2,26-38,49.1-61.1,69.7
		c-47.9,42.7-96.6,84.6-145,126.8c-8.5,7.4-15.5,7.4-24.1,0c-38.5-33.2-77.1-66.3-115.4-99.6c-29.2-25.5-57.4-52-81-83
		C26,260.1,13.3,237.9,7.2,212.6C4.9,202.9,3.8,193,2.1,183.2z"/>
</g>
<g class="st0">
	<path class="st2" d="M497,287.1c-2.7,3.9-5.1,8.1-8.1,11.8c-25.3,30.5-50.7,60.9-76.1,91.3c-9.3,11.1-19.6,11.1-29-0.1
		c-26.3-31.5-52.6-63.1-78.9-94.6c-4.9-5.8-6.9-12-3.4-19c3.4-6.9,9.3-9.7,16.9-9.6c13.8,0.1,27.6,0,41.4,0c1.7,0,3.4,0,5.4,0
		c0-33,0-65.5,0-98.5c-2.2,0-4,0-5.9,0c-45.7,0-91.5-0.1-137.2,0.1c-5.7,0-9.9-1.7-13.6-6.3c-11.9-14.7-24.1-29.2-36.3-43.7
		c-2.7-3.2-5-6.5-3.1-10.9c2-4.5,6.1-5.1,10.5-5.1c80.1,0,160.1,0,240.2,0c8.7,0,11.4,2.6,11.5,11.5c0.1,17.8,0,35.6,0,53.4
		c0,31,0,61.9,0,92.9c0,1.9,0,3.8,0,6.5c1.9,0,3.6,0,5.3,0c13,0,26,0.4,39-0.1c10.2-0.4,17.3,3.2,21.4,12.6
		C497,281.9,497,284.5,497,287.1z"/>
	<path class="st2" d="M69.6,234.1c-16.3,0-31.8,0.2-47.3-0.1c-3.8-0.1-8.1-1.1-11.3-3.2c-8.6-5.7-9.4-16.2-2.3-24.7
		c16.4-19.8,32.9-39.4,49.3-59.2c10.2-12.2,20.3-24.4,30.5-36.6c8.4-10,19.5-10.2,27.9-0.3c26.8,32,53.4,64.1,80.2,96.1
		c4.6,5.5,6.2,11.6,3,18.3c-3.2,6.7-8.9,9.7-16.4,9.7c-14-0.1-27.9,0-41.9,0c-1.7,0-3.5,0-5.5,0c0,32.9,0,65.4,0,98.5
		c2.1,0,4.2,0,6.2,0c45.6,0,91.1,0.1,136.7-0.1c6.1,0,10.5,1.9,14.4,6.8c11.6,14.5,23.7,28.7,35.7,42.9c2.8,3.4,5,6.9,3,11.3
		c-2.1,4.5-6.3,4.9-10.6,4.9c-79.7,0-159.5,0-239.2,0c-9.9,0-12.3-2.4-12.3-12.7c0-48.5,0-96.9,0-145.4
		C69.6,238.5,69.6,236.6,69.6,234.1z"/>
</g>
<g class="st0">
	<path class="st2" d="M250.6,46.9c48.7,0.5,96.2,10.8,138.7,38.5c52.3,34.1,81.3,82.6,86.6,144.9c4.3,50.4-6.4,97.1-37.5,137.8
		c-29.5,38.8-69.4,62.1-116,74.2c-53.2,13.8-106.2,12.6-158.9-3.6c-2.2-0.7-5.8-0.6-7.2,0.8c-19.8,19.1-44,29.2-70.6,33.5
		c-16.3,2.6-33,2.8-49.5,3.8c-6.2,0.4-11.3-1.9-13.6-8.2c-2-5.4-0.3-10.1,5.5-14.9c21.3-17.5,35.1-39.7,41.7-66.5
		c1-4.2,0.3-7.2-2.6-10.6c-35.2-41.7-49.1-90-44.8-144.1c3.3-41.6,17.3-78.9,44.7-110.6C95.3,89.2,131.4,69,172.6,57.3
		C197.6,50.2,223.2,47.2,250.6,46.9z"/>
</g>
<g class="st0">
	<path class="st2" d="M310.7,339.3c-74.1,56.8-174.1,42.1-230-24.2c-55.1-65.3-51-163.3,9.8-224.3c60.6-60.8,158.2-65.4,223.9-10.8
		c67.1,55.8,81.9,156.4,25.3,230.1c1.2,1.2,2.3,2.5,3.6,3.8c35.6,35.6,71.4,71.1,106.8,106.8c3.3,3.3,6,7.8,7.2,12.3
		c2.4,9-2.2,17.9-10.1,22.3c-7.8,4.3-17.6,3.3-24.4-3.1c-6.6-6.3-12.9-12.8-19.3-19.3c-29.7-29.8-59.5-59.6-89.2-89.4
		C313.1,342.4,312,340.9,310.7,339.3z M83.5,208c0,69.3,55.9,125.2,125.2,125.1c68.8-0.1,124.4-55.9,124.3-124.8
		C333,139.2,277,83.3,208,83.5C139.6,83.6,83.5,139.7,83.5,208z"/>
</g>
<g class="st0">
	<path class="st2" d="M29.5,202.8c147.3,0,293.8,0,441.1,0c0,1.8,0,3.5,0,5.3c0,70.9,0,141.8,0,212.7c0,29.6-20.1,49.8-49.7,49.8
		c-113.9,0-227.8,0-341.6,0c-29.6,0-49.7-20.2-49.7-49.8c0-70.9,0-141.8,0-212.7C29.5,206.5,29.5,204.9,29.5,202.8z M139.6,313
		c5.2,0,10.5,0.1,15.7,0c9.1-0.2,16-7.2,15.9-15.9c-0.1-8.6-6.9-15.4-15.8-15.5c-10.5-0.1-21-0.2-31.5,0
		c-8.9,0.1-15.6,7.1-15.6,15.7c0,8.6,6.7,15.5,15.6,15.8C129.1,313.1,134.3,313,139.6,313z M249.9,313c5.4,0,10.8,0.2,16.2,0
		c8.6-0.3,15.2-7.1,15.3-15.5c0.1-8.6-6.6-15.7-15.4-15.9c-10.7-0.2-21.3-0.2-32,0c-8.9,0.1-15.6,7.1-15.6,15.7
		c0,8.6,6.8,15.5,15.7,15.7C239.4,313.1,244.7,313,249.9,313z M360.2,313c5.4,0,10.8,0.2,16.2,0c8.6-0.3,15.2-7.2,15.3-15.6
		c0.1-8.6-6.7-15.7-15.5-15.8c-10.7-0.2-21.3-0.2-32,0c-8.9,0.2-15.6,7.2-15.5,15.8c0.1,8.6,6.8,15.4,15.7,15.6
		C349.7,313.1,355,313,360.2,313z M139.8,391.8c5.1,0,10.2,0.1,15.3,0c9.2-0.2,16.2-6.9,16.2-15.7c0-8.8-6.9-15.7-16-15.8
		c-10.3-0.1-20.7-0.1-31,0c-9.2,0.1-16,7.1-15.9,15.9c0.1,8.6,6.9,15.4,15.8,15.6C129.3,391.9,134.5,391.8,139.8,391.8z M250,360.3
		c-5.2,0-10.5-0.1-15.7,0c-8.9,0.2-15.7,7-15.7,15.6c-0.1,8.6,6.7,15.7,15.5,15.8c10.7,0.2,21.3,0.2,32,0
		c8.8-0.2,15.6-7.2,15.5-15.8c-0.1-8.6-6.9-15.4-15.7-15.6C260.5,360.2,255.2,360.3,250,360.3z M360.4,391.8c5.2,0,10.5,0.1,15.7,0
		c8.9-0.3,15.6-7.1,15.6-15.7c0-8.6-6.8-15.6-15.6-15.7c-10.5-0.2-21-0.1-31.5,0c-9,0.1-15.7,6.9-15.9,15.5
		c-0.1,8.8,6.7,15.8,15.9,16C349.9,391.9,355.1,391.8,360.4,391.8z"/>
	<path class="st2" d="M265.7,60.8c26.5,0,52.3,0,78.8,0c0-4.8,0-9.4,0-14.1c0.1-10.1,6.4-17.2,15.6-17.3c9.3-0.1,15.9,7.1,15.9,17.4
		c0,4.4,0,8.9,0,14.1c1.9,0,3.6,0,5.3,0c13.6,0,27.2-0.1,40.8,0c27.7,0.1,48.2,20.5,48.4,48.1c0.1,20.5,0,41,0,61.8
		c-147,0-293.7,0-440.8,0c-0.1-1.4-0.3-2.8-0.3-4.2c0-19-0.1-38.1,0-57.1C29.6,81.4,50,61,78.3,60.9c15,0,30.1,0,45.7,0
		c0-5.3-0.1-10.2,0-15c0.1-9.6,6.9-16.5,15.9-16.5c8.7,0.1,15.4,7,15.6,16.3c0.1,4.9,0,9.8,0,14.9c26.2,0,52.1,0,78.8,0
		c0-4.5,0-9.2,0-13.9c0.1-10.4,6.6-17.5,16-17.4c9.1,0.1,15.5,7.2,15.5,17.3C265.8,51.3,265.7,55.9,265.7,60.8z"/>
</g>
<g class="st0">
	<path class="st2" d="M107.2,500c-8.3-1.9-16.8-3.3-25-5.8C29.8,478.1-4.5,425.1,1.7,370.8c3.1-26.8,13.5-50,32.5-69.1
		c35.1-35.4,70-71.1,105.9-105.6c52.4-50.3,140.6-38.3,178.2,23.4c0.5,0.8,1,1.7,1.9,3.2c-7.5,7-14.4,14.8-22.7,21
		c-11.1,8.3-26,6.3-36.5-3.6c-12-11.4-26.3-17.1-42.8-16.7c-14.9,0.3-28.1,5.3-38.7,15.8c-34.8,34.6-69.6,69.1-104,104.1
		c-22,22.4-21,59.1,1.3,81.3c22.7,22.6,59,22.9,82.1,0.4c22.2-21.7,44-43.8,65.8-65.8c2.8-2.8,5-3.3,8.8-2
		c21.3,7.6,43.3,9.7,65.7,6.8c0.8-0.1,1.6-0.1,3.5-0.2c-1.7,1.8-2.9,3.1-4.1,4.3c-31.9,31.9-63.9,63.8-95.7,95.8
		c-19.9,20.1-43.6,32.3-71.8,35.5c-0.8,0.1-1.5,0.5-2.2,0.8C121.5,500,114.4,500,107.2,500z"/>
	<path class="st2" d="M500,128.7c-1.9,8.5-3.4,17.1-5.9,25.5c-4.9,16.3-13.2,30.9-25.1,42.9c-35.7,36.1-71.3,72.5-108,107.7
		c-45.6,43.8-120.7,41.2-164.1-4.9c-6-6.3-10.8-13.7-15.3-19.5c7.4-8,13.3-16.1,20.9-22.4c11-9.2,26.6-7.5,37.7,2.9
		c9.6,8.9,20.6,14.5,33.6,16.1c19.1,2.4,35.7-3.1,49.4-16.6c15.6-15.4,31-31,46.5-46.5c18.3-18.3,36.7-36.3,54.7-54.8
		c30.9-31.7,17.5-84.5-24.6-96.9c-21.9-6.5-41.6-1.5-58,14.4c-22.2,21.6-44,43.8-65.8,65.8c-2.4,2.4-4.3,2.9-7.5,1.7
		c-21.6-7.8-43.9-9.9-66.7-7.2c-0.7,0.1-1.5,0.1-3,0.3c1.2-1.4,1.9-2.3,2.7-3c33.2-33.2,66.1-66.7,99.7-99.5
		c52.5-51.4,137.4-42.6,178.7,18c10.6,15.6,16.9,32.8,19.1,51.5c0.1,1.1,0.6,2.1,0.9,3.2C500,114.4,500,121.5,500,128.7z"/>
</g>
<g class="st0">
	<path class="st2" d="M246.6,500c-5.6-4.8-11.7-9.2-16.7-14.5c-41.4-44.2-79.4-91.1-111.2-142.7c-19.7-32-36.9-65.2-47.2-101.6
		c-17.9-63.3-6.1-121.1,35.1-172C137.1,31.4,177.4,9,225.8,3C290.2-5,345,15.3,388.9,62.9c34.5,37.4,50.2,82.4,48.3,133.2
		c-1.1,29.1-10,56.4-21.4,82.9c-16.7,38.6-38.8,74.2-63.3,108.2c-26.4,36.5-55.3,71-86.5,103.4c-3.4,3.5-7.7,6.2-11.6,9.3
		C251.8,500,249.2,500,246.6,500z M344,188.1c0-51.5-42.3-93.6-93.7-93.5c-51.3,0.1-93.2,42-93.4,93.3c-0.2,51.4,42,93.7,93.5,93.8
		C301.9,281.7,344.1,239.6,344,188.1z"/>
</g>
<g class="st0">
	<path class="st2" d="M72.8,187.6c34.4,0,62.2,27.9,62.2,62.3c0,34.4-27.9,62.5-62.1,62.6c-34.3,0.1-62.9-28.5-62.7-62.8
		C10.3,215.5,38.5,187.5,72.8,187.6z"/>
	<path class="st2" d="M427.6,187.6c34.2,0,62.4,28.3,62.3,62.5c-0.2,34.2-28.4,62.4-62.5,62.4c-34.4,0-62.4-28.2-62.3-62.9
		C365.1,215.2,393,187.5,427.6,187.6z"/>
	<path class="st2" d="M187.8,250.1c-0.1-34.6,27.6-62.5,62.1-62.5c34.6,0,62.3,27.6,62.3,62.2c0,34.6-27.7,62.6-62,62.7
		C215.8,312.5,187.9,284.6,187.8,250.1z"/>
</g>
<g class="st0">
	<path class="st2" d="M138.7,260.3c63.4,58.5,159.2,58.6,223-0.3c5.5,3.4,11.4,6.6,16.9,10.4c68,46.8,103.7,111.3,106.4,193.9
		c0.4,13.5-7,20.8-20.3,20.8c-143.1,0-286.3,0-429.4,0c-13,0-20.7-7.4-20.3-20.2c3-88.9,43-156.1,118.9-202.2
		c1.1-0.7,2.3-1.3,3.5-1.9C137.7,260.6,138.1,260.5,138.7,260.3z"/>
	<path class="st2" d="M123.4,141.4c0-69.5,56.8-126.4,126.5-126.4c69.7,0,126.5,56.6,126.7,126.2c0.1,68.1-58.7,126.9-126.9,126.9
		C180.2,268.1,123.5,211.2,123.4,141.4z"/>
</g>
<g class="st0">
	<path class="st2" d="M403.8,490c-2.2,0-4.4,0-6.6,0c-3.4-2.6-7.2-4.9-10.2-7.9c-44.4-44.2-88.7-88.5-132.9-132.9
		c-1.3-1.3-1.9-3.2-2.8-4.9c-3.2,2.3-4.1,3.7-5.3,4.9c-44.2,44.2-88.4,88.4-132.6,132.5c-3.1,3.1-7,5.5-10.5,8.2c-2.2,0-4.4,0-6.6,0
		c-8.4-3.1-11.1-9.3-11.1-17.9c0.1-148.1,0.1-296.1,0.1-444.2c0-12.9,5-17.8,17.8-17.8c98,0,195.9,0,293.9,0
		c12.9,0,17.9,5,17.9,17.8c0,148.1,0,296.1,0.1,444.2C414.9,480.7,412.1,486.9,403.8,490z"/>
</g>
<g class="st0">
	<path class="st2" d="M5.7,108.4c8.9,5.9,16.4,10.9,23.8,15.9c62.7,41.8,125.4,83.6,188.2,125.4c21.8,14.6,42.7,14.6,64.6,0
		c67.9-45.2,135.8-90.5,203.7-135.8c2.3-1.5,4.5-3,7.9-5.2c1,6.4,2.6,11.9,2.6,17.5c0.2,82.6,0.3,165.2,0,247.7
		c-0.1,29.4-23.6,52.2-53.4,52.2c-55.4,0.1-110.9,0-166.3,0c-73,0-146.1,0-219.1,0c-28.2,0-49.5-18.1-54-45.8
		c-0.5-3.2-0.5-6.6-0.5-9.9c0-80.4-0.1-160.7,0.1-241.1C3.4,122.8,4.8,116.1,5.7,108.4z"/>
	<path class="st2" d="M29.3,81.5c9.3-5.6,18.6-7.8,28.5-7.8c49.7,0,99.4,0,149.2,0c78.3,0,156.7,0,235,0c10.1,0,19.5,1.9,28.8,7.6
		c-2.1,1.5-3.6,2.7-5.2,3.8c-67.1,44.8-134.2,89.5-201.4,134.2c-11.9,7.9-16.6,7.9-28.4,0c-67.1-44.7-134.2-89.5-201.3-134.2
		C32.9,84.1,31.5,83,29.3,81.5z"/>
</g>
<g class="st0">
	<path class="st2" d="M241.6,490c-7-2-14.3-3.4-20.9-6.3c-22.8-9.8-37.1-27.3-43.6-51.2c-0.2-0.6-0.1-1.2-0.2-2.2
		c48.8,0,97.4,0,146.4,0c-1.6,9.1-5.1,17.3-10.1,24.9c-12.5,19-30,30.5-52.6,34c-0.7,0.1-1.4,0.5-2.1,0.8
		C252.9,490,247.2,490,241.6,490z"/>
	<path class="st2" d="M250,410.1c-54.2,0-108.4,0-162.6,0c-18.7,0-32.7-10.5-36.4-27.5c-3-14.1,1.6-25.8,12.5-35.2
		c11.3-9.8,20.8-21.2,28.3-34.1c12.5-21.4,18.3-44.6,18.4-69.3c0-19.2-0.2-38.4,0.1-57.7c1.2-65.9,50.5-123.1,115.4-133.9
		c3.6-0.6,4.7-1.8,4.6-5.3c-0.3-5.9-0.2-11.9,0-17.8c0.4-10.8,9-19.2,19.6-19.3c10.9-0.1,19.7,8.3,20.1,19.3
		c0.2,6.2,0.2,12.5,0,18.7c-0.1,2.8,0.9,3.7,3.6,4.2c60.3,10.7,105.6,56.9,114.9,117.3c1.2,7.7,1.3,15.6,1.4,23.4
		c0.4,21.1-0.5,42.2,0.8,63.2c2.2,35.8,17.6,65.6,44.2,89.6c7.8,7,13.9,14.8,14.8,25.7c1.8,21.8-13.8,38.5-36.1,38.6
		c-21.1,0.1-42.2,0-63.3,0C316.9,410.1,283.5,410.1,250,410.1z"/>
</g>
<g class="st0">
	<path class="st2" d="M9.9,335.3c0-3.4,0-6.9,0-10.3c5.1-16.2,16.5-22.2,33.1-21.8c25.4,0.7,50.9,0.2,76.4,0.2c3.1,0,6.2,0,9.7,0
		c8.9-35.6,17.7-70.9,26.7-106.7c-2.4,0-4.1,0-5.8,0c-20.1,0-40.3,0.1-60.4-0.1c-14.9-0.2-26.3-12-26.2-26.8
		c0.1-14.9,11.8-26.4,27.6-26.5c24.4-0.1,48.7,0,73.1,0c1.7,0,3.4,0,4.9,0c0.5-1.5,0.9-2.6,1.1-3.6c8.8-35.4,17.5-70.8,26.6-106.2
		c1.4-5.4,4-11.1,7.7-15.1c3.4-3.8,9-5.6,13.7-8.3c3.4,0,6.9,0,10.3,0c0.2,0.2,0.4,0.5,0.7,0.6c17.4,6,23.7,17.8,19.3,35.7
		c-7.7,30.9-15.4,61.7-23.1,92.6c-0.3,1.3-0.5,2.6-0.7,4c1.1,0.1,1.7,0.3,2.3,0.3c33,0,65.9-0.1,98.9,0.1c3.6,0,4-1.9,4.6-4.4
		c8.5-34,17.4-68,25.3-102.2c3.1-13.3,9.2-22.9,22.8-26.8c3.1,0,6.2,0,9.4,0c19.4,5.3,25.2,21.7,20.2,38.6
		c-6.3,21.5-11.1,43.5-16.5,65.3c-2.4,9.6-4.8,19.2-7.3,29.3c2.3,0,4,0,5.7,0c23.9,0,47.8,0,71.7,0c8,0,15.2,2.3,20.7,8.2
		c7.7,8.3,9.9,18.1,5.5,28.6c-4.3,10.5-12.6,16.4-24,16.5c-29.1,0.3-58.1,0.1-87.2,0.1c-1.9,0-3.7,0-6,0
		c-8.9,35.5-17.7,70.9-26.7,106.7c2.4,0,4.1,0,5.8,0c20.3,0,40.6-0.1,60.9,0.1c14.3,0.2,25.6,12,25.7,26.3
		c0.1,15.4-11.7,26.9-28.1,26.9c-24.2,0.1-48.4,0-72.6,0c-1.7,0-3.4,0-5,0c-0.5,1.9-0.9,3.2-1.2,4.6c-9,35.9-18,71.7-26.9,107.6
		c-1.5,6-4.3,11-9.1,14.9c-8.8,7.3-20.9,8.2-30.6,2.4c-9.8-5.8-15-17.2-12.3-28.5c5.4-22.4,11.1-44.8,16.7-67.2
		c2.7-11,5.5-22,8.4-33.7c-2.4,0-4.2,0-6.1,0c-31.1,0-62.2,0.1-93.3-0.1c-4.3,0-6.1,1.1-7.2,5.5c-8.6,35.5-17.4,70.9-26.5,106.2
		c-1.2,4.5-3.5,9.1-6.5,12.7c-7.8,9.3-21.2,11.5-32,5.9c-11.1-5.8-16.5-18.1-13.3-31c7.8-31.3,15.7-62.6,23.5-94
		c0.4-1.6,0.7-3.2,1.1-5.2c-2.2,0-3.9,0-5.6,0c-23.9,0-47.8,0.1-71.7,0c-13.8,0-23-6.9-27.3-19.9C10.7,336.3,10.3,335.8,9.9,335.3z
		 M315.7,196.8c-35.4,0-70,0-105,0c-8.9,35.4-17.7,70.8-26.6,106.3c35.3,0,70.1,0,105,0C298,267.7,306.8,232.5,315.7,196.8z"/>
</g>
<g>
	<path class="st3" d="M474.8,254c-2.6,6.4-4.3,13.5-8,19.1c-8.2,12.2-20.8,16.7-35.2,16.7c-43.1,0-86.2,0-129.2,0
		c-9.6,0-11.7,2.2-11.7,11.9c0,43.1,0,86.2,0,129.2c0,11.3-2.7,21.8-10.8,30.1c-12,12.3-26.4,15.8-42.9,10.5
		c-13.7-4.5-24.8-18.3-26-32.8c-0.4-4.5-0.6-9-0.6-13.5c0-41.3,0-82.6,0-124c0-9-2.3-11.4-11.4-11.4c-43.2,0-86.5,0-129.7,0
		c-11.3,0-21.8-2.7-30.1-10.8c-12.4-12-15.9-26.4-10.5-42.8c4.5-13.8,18.3-24.8,32.8-26c4.5-0.4,9-0.6,13.5-0.6c41.3,0,82.7,0,124,0
		c9.1,0,11.4-2.3,11.4-11.3c0-43.2,0-86.4,0-129.7c0-10.3,2.3-19.9,9-28.1c6.6-8,14.9-12.9,25.2-14.4c0.5-0.1,1.1-0.4,1.6-0.6
		c2.9,0,5.8,0,8.8,0c0.5,0.2,1,0.6,1.6,0.6c10.3,1.5,18.6,6.4,25.2,14.4c6.8,8.2,9,17.8,9,28.1c0,43.1,0,86.1,0,129.2
		c0,9.6,2.2,11.8,11.8,11.8c43.1,0,86.1,0,129.2,0c14.4,0,27,4.5,35.2,16.7c3.8,5.6,5.4,12.7,8,19.1
		C474.8,248.1,474.8,251,474.8,254z"/>
</g>
<g class="st0">
	<path class="st2" d="M102.4,227.8c3,0,4.8,0,6.6,0c110.8,0,221.5,0,332.3,0.1c3.3,0,6.8,0.2,9.9,1.3c8.8,3.2,14.2,13.6,12.9,23.9
		c-1.4,11.1-8.6,18.9-18.1,19.6c-2,0.1-4,0.1-5.9,0.1c-110.3,0-220.6,0-330.9,0c-1.8,0-3.6,0-6.6,0c1.9,2.3,3,3.8,4.2,5.2
		c32.3,37.4,64.5,74.7,96.8,112.1c4.1,4.8,7.2,10.1,7.3,17c0.1,9.8-3.6,17.1-11.2,21.1c-7.4,4-14.5,2.7-20.9-3.3
		c-1.3-1.2-2.4-2.7-3.6-4c-43.7-50.6-87.4-101.1-131-151.7c-11.1-12.8-11.1-24.8-0.1-37.5c44.3-51.3,88.7-102.6,133-153.9
		c5.6-6.4,11.9-9.6,19.8-7.2c14.1,4.3,19.4,23.7,9.8,36.6c-1.3,1.7-2.7,3.3-4.1,4.9c-31.8,36.9-63.7,73.7-95.5,110.6
		C105.7,223.8,104.5,225.3,102.4,227.8z"/>
</g>
<g class="st0">
	<g class="st4">
		<path class="st3" d="M300,81H25.4C16.9,81,10,73.2,10,63.6s6.9-17.3,15.4-17.3H300c8.5,0,15.4,7.8,15.4,17.3S308.5,81,300,81z"/>
	</g>
	<g class="st4">
		<line class="st3" x1="25.7" y1="188.6" x2="474.3" y2="188.6"/>
		<path class="st3" d="M474.3,205.4H25.7c-8.7,0-15.7-7.5-15.7-16.8c0-9.3,7-16.8,15.7-16.8h448.7c8.7,0,15.7,7.5,15.7,16.8
			C490,197.9,483,205.4,474.3,205.4z"/>
	</g>
	<g class="st4">
		<path class="st3" d="M300,329.3H25.4c-8.5,0-15.4-7.8-15.4-17.3c0-9.6,6.9-17.3,15.4-17.3H300c8.5,0,15.4,7.8,15.4,17.3
			C315.4,321.6,308.5,329.3,300,329.3z"/>
	</g>
	<g class="st4">
		<line class="st3" x1="25.7" y1="436.9" x2="474.3" y2="436.9"/>
		<path class="st3" d="M474.3,453.7H25.7c-8.7,0-15.7-7.5-15.7-16.8s7-16.8,15.7-16.8h448.7c8.7,0,15.7,7.5,15.7,16.8
			S483,453.7,474.3,453.7z"/>
	</g>
</g>
</svg>
