<?xml version="1.0" encoding="UTF-8"?>
<svg id="Capa_2" data-name="Capa 2" xmlns="http://www.w3.org/2000/svg" viewBox="0 0 480 479.95">
  <defs>
    <style>
      .cls-1 {
        fill: #8f8f8f;
      }
    </style>
  </defs>
  <g id="Capa_1-2" data-name="Capa 1">
    <path class="cls-1" d="m310.08,343.04c-85.52,65.54-200.93,48.63-265.43-27.88C-18.91,239.77-14.15,126.7,55.97,56.37,125.89-13.76,238.56-19.08,314.33,43.92c77.44,64.39,94.49,180.45,29.23,265.49,1.34,1.41,2.71,2.91,4.14,4.34,41.13,41.06,82.35,82.03,123.28,123.29,3.77,3.8,6.96,9.06,8.31,14.19,2.72,10.37-2.56,20.61-11.71,25.69-9.04,5.02-20.36,3.77-28.13-3.59-7.62-7.22-14.9-14.79-22.32-22.22-34.31-34.36-68.61-68.72-102.9-103.11-1.45-1.45-2.65-3.15-4.16-4.97ZM47.83,191.46c0,79.98,64.53,144.44,144.49,144.31,79.44-.13,143.55-64.48,143.48-144.02-.07-79.66-64.66-144.09-144.3-143.93-78.86.15-143.66,64.94-143.66,143.64Z"/>
  </g>
</svg>