<?xml version="1.0" encoding="UTF-8"?>
<svg id="Capa_2" data-name="Capa 2" xmlns="http://www.w3.org/2000/svg" viewBox="0 0 480 480.01">
  <defs>
    <style>
      .cls-1 {
        fill: #8f8f8f;
      }
    </style>
  </defs>
  <g id="Capa_1-2" data-name="Capa 1">
    <g>
      <path class="cls-1" d="m.02,188.67h479.94c0,1.97,0,3.84,0,5.72,0,77.14.02,154.29,0,231.43-.01,32.22-21.92,54.17-54.1,54.17-123.91.02-247.82.02-371.74,0-32.16,0-54.08-21.97-54.09-54.19-.02-77.14,0-154.29,0-231.43v-5.7Zm119.81,119.89c5.71,0,11.43.11,17.13-.02,9.94-.23,17.42-7.81,17.3-17.35-.12-9.31-7.55-16.74-17.23-16.87-11.42-.15-22.85-.17-34.27,0-9.67.15-17,7.68-17.03,17.05-.02,9.32,7.34,16.87,16.96,17.16,5.71.17,11.42.03,17.13.03Zm120.06-.01c5.89,0,11.79.17,17.67-.04,9.35-.32,16.58-7.75,16.69-16.87.12-9.33-7.22-17.12-16.78-17.3-11.6-.22-23.2-.2-34.8-.01-9.66.16-16.96,7.74-16.95,17.12.02,9.32,7.4,16.81,17.03,17.08,5.71.16,11.42.03,17.13.02Zm120.06,0c5.89,0,11.79.18,17.67-.04,9.33-.34,16.54-7.82,16.61-16.94.08-9.32-7.28-17.06-16.85-17.23-11.6-.21-23.2-.2-34.8,0-9.63.17-16.93,7.81-16.87,17.19.05,9.32,7.45,16.75,17.11,17.01,5.71.15,11.42.03,17.13.02Zm-239.91,85.73c5.53,0,11.07.08,16.6-.02,10.05-.18,17.58-7.51,17.62-17.04.05-9.53-7.48-17.08-17.45-17.2-11.24-.13-22.49-.14-33.73,0-9.99.13-17.43,7.69-17.35,17.27.09,9.31,7.5,16.7,17.17,16.95,5.71.14,11.42.03,17.13.03Zm119.94-34.28c-5.71,0-11.43-.12-17.13.03-9.71.24-17.05,7.59-17.13,16.96-.07,9.33,7.27,17.06,16.86,17.23,11.6.21,23.2.21,34.8,0,9.6-.18,16.94-7.88,16.87-17.22-.07-9.32-7.48-16.74-17.13-16.98-5.71-.14-11.42-.03-17.13-.03Zm120.12,34.28c5.71,0,11.43.13,17.13-.03,9.64-.28,17-7.78,17-17.11,0-9.32-7.39-16.94-17-17.1-11.42-.19-22.85-.16-34.27,0-9.74.13-17.12,7.47-17.26,16.82-.15,9.54,7.34,17.17,17.26,17.4,5.71.14,11.42.02,17.13.02Z"/>
      <path class="cls-1" d="m257.13,34.16h85.71c0-5.17-.03-10.27,0-15.36C342.91,7.79,349.84.11,359.77,0c10.12-.11,17.27,7.69,17.34,18.95.03,4.82,0,9.63,0,15.32,2.03,0,3.89,0,5.76,0,14.81,0,29.63-.06,44.44.01,30.16.15,52.45,22.3,52.62,52.38.12,22.29.02,44.58.02,67.24H.33c-.1-1.48-.29-3.02-.29-4.55-.02-20.71-.07-41.42,0-62.12.1-30.7,22.35-52.85,53.14-52.95,16.38-.05,32.75,0,49.69,0,0-5.77-.06-11.07.01-16.37C103.03,7.49,110.38-.09,120.16,0c9.51.08,16.78,7.62,16.96,17.71.09,5.32.02,10.64.02,16.26h85.71c0-4.9-.02-9.99,0-15.08C222.92,7.62,230.08-.14,240.24,0c9.89.13,16.82,7.86,16.89,18.86.03,4.96,0,9.91,0,15.3Z"/>
    </g>
  </g>
</svg>