<?xml version="1.0" encoding="UTF-8"?>
<svg id="Capa_2" data-name="Capa 2" xmlns="http://www.w3.org/2000/svg" viewBox="0 0 494.39 393.61">
  <defs>
    <style>
      .cls-1 {
        fill: #b0b0b0;
      }
    </style>
  </defs>
  <g id="Capa_1-2" data-name="Capa 1">
    <g>
      <path class="cls-1" d="m247.27,79.59c27.48,22.65,54.55,44.94,81.61,67.24,30.41,25.07,60.78,50.19,91.27,75.16,2.8,2.29,3.8,4.62,3.79,8.17-.11,46.98-.06,93.96-.08,140.95,0,14.41-7.99,22.46-22.37,22.48-36.68.04-73.37.02-110.05,0-1.42,0-2.84-.13-4.77-.23v-117.14h-78.66v117.14c-2.24.1-3.81.23-5.37.23-36.52.01-73.05.03-109.57,0-14.66-.01-22.53-8.01-22.54-22.81-.01-46.82.03-93.64-.08-140.46,0-3.74,1.14-6.13,4.05-8.53,56.05-46.06,112.01-92.24,167.99-138.39,1.47-1.21,2.99-2.37,4.79-3.8Z"/>
      <path class="cls-1" d="m494.39,202.6c-6.31,7.65-12.59,15.33-18.93,22.95-6.29,7.56-11.22,7.95-18.8,1.63-68.21-56.88-136.42-113.75-204.63-170.63-1.48-1.23-2.99-2.42-4.87-3.94-7.66,6.37-15.3,12.7-22.92,19.06-62.28,51.93-124.56,103.86-186.84,155.79-7.1,5.92-12.24,5.48-18.15-1.53-5.08-6.03-10.16-12.06-15.19-18.13-5.88-7.1-5.4-12.1,1.78-18.08,56.49-47.07,112.98-94.12,169.48-141.18,15.82-13.18,31.57-26.46,47.5-39.5,12.55-10.27,26.52-11.57,41.11-5,3.88,1.75,7.3,4.68,10.62,7.44,22.27,18.51,44.45,37.13,66.68,55.7,1.07.89,2.23,1.67,4.19,3.12,0-2.57,0-4.25,0-5.94,0-16.9-.03-33.79.01-50.69.02-9.5,3.25-12.73,12.75-12.75,17.54-.03,35.08-.03,52.62,0,9.79.01,13.08,3.29,13.08,13.02.01,39.1.05,78.21-.07,117.31-.01,3.39.99,5.59,3.6,7.73,20.13,16.56,40.18,33.21,60.14,49.97,2.63,2.21,4.59,5.21,6.86,7.84v5.79Z"/>
    </g>
  </g>
</svg>