<?xml version="1.0" encoding="UTF-8"?>
<svg id="Capa_2" data-name="Capa 2" xmlns="http://www.w3.org/2000/svg" viewBox="0 0 455.14 429.89">
  <defs>
    <style>
      .cls-1 {
        fill: #8f8f8f;
      }
    </style>
  </defs>
  <g id="Capa_1-2" data-name="Capa 1">
    <path class="cls-1" d="m228.88,0c48.68.51,96.22,10.79,138.73,38.5,52.34,34.12,81.25,82.64,86.6,144.92,4.33,50.44-6.45,97.06-37.46,137.81-29.51,38.78-69.44,62.08-116.02,74.16-53.19,13.8-106.25,12.62-158.89-3.62-2.18-.67-5.83-.55-7.24.81-19.8,19.13-44.01,29.25-70.57,33.46-16.29,2.58-32.98,2.76-49.5,3.8-6.23.39-11.26-1.9-13.61-8.21-2.03-5.44-.29-10.07,5.54-14.85,21.35-17.5,35.08-39.74,41.7-66.5,1.04-4.2.29-7.19-2.61-10.63C10.39,287.94-3.5,239.6.74,185.53c3.26-41.62,17.28-78.85,44.65-110.55C73.61,42.29,109.66,22.03,150.84,10.33,175.88,3.22,201.5.26,228.88,0Z"/>
  </g>
</svg>