<?xml version="1.0" encoding="UTF-8"?>
<svg id="Capa_2" data-name="Capa 2" xmlns="http://www.w3.org/2000/svg" viewBox="0 0 451.06 492.06">
  <defs>
    <style>
      .cls-1 {
        fill: #8f8f8f;
      }
    </style>
  </defs>
  <g id="Capa_1-2" data-name="Capa 1">
    <path class="cls-1" d="m377.64,0c7.07,1.89,14.38,3.16,21.17,5.77,34.72,13.38,56.01,48.88,51.69,85.57-4.33,36.86-32.99,66.68-69.66,71.78-25.76,3.58-48.44-3.68-67.74-21.21-1.3-1.18-2.55-2.42-3.83-3.62-.11-.1-.28-.14-.93-.45-49.03,27.94-98.33,56.04-147.87,84.28,4.57,15.9,4.65,31.68-.03,47.78,49.39,28.15,98.69,56.25,148.22,84.49,17.16-17.68,37.88-26.81,62.37-26.29,19.57.42,36.94,7.18,51.71,20.12,29.61,25.94,36.84,68.34,17.53,102.19-19.42,34.05-59.91,49.65-96.7,37.64-33-10.77-64.75-46.43-54.56-97.63-12.8-7.31-25.7-14.67-38.6-22.03-35.72-20.36-71.47-40.68-107.12-61.16-3.14-1.81-5-1.67-7.84.7-24.57,20.46-52.43,25.87-82.21,14.65-30.13-11.36-47.89-33.98-52.45-66.06-4.82-33.9,12.32-66.52,42.81-82.89,29.62-15.91,66.51-11.74,91.94,10.44,1.98,1.73,3.42,3.26,6.54,1.47,48.86-28.01,97.79-55.87,146.85-83.85-.57-4.89-1.46-9.76-1.67-14.65-1.94-44.09,27.23-79.51,70.86-86.24.76-.12,1.48-.52,2.22-.78,5.77,0,11.53,0,17.3,0Z"/>
  </g>
</svg>