<?xml version="1.0" encoding="UTF-8"?>
<svg id="Capa_2" data-name="Capa 2" xmlns="http://www.w3.org/2000/svg" viewBox="0 0 493.09 493.18">
  <defs>
    <style>
      .cls-1 {
        fill: #8f8f8f;
      }
    </style>
  </defs>
  <g id="Capa_1-2" data-name="Capa 1">
    <path class="cls-1" d="m278.33,493.18h-63.56c-6.98-2.5-10.47-7.63-12.11-14.74-3.75-16.23-8.01-32.35-11.8-48.58-.77-3.28-2.38-4.73-5.35-5.88-7.76-3-15.44-6.22-23.01-9.67-2.89-1.32-5.07-1.42-7.89.33-11.71,7.27-23.6,14.27-35.43,21.34-9.36,5.59-15.16,4.91-22.78-2.69-12.16-12.13-24.3-24.27-36.42-36.43-7.45-7.47-8.22-13.38-2.86-22.36,7.23-12.12,14.47-24.23,21.83-36.26,1.39-2.28,1.5-4.06.37-6.56-3.63-8.01-7.04-16.14-10.22-24.35-1.11-2.85-2.63-4.26-5.64-4.97-16.67-3.97-33.3-8.14-49.93-12.29C3.87,287.66.05,282.85.03,273.03c-.04-17.49-.03-34.99,0-52.48.01-10.2,3.73-14.97,13.6-17.44,16.63-4.15,33.26-8.31,49.92-12.33,2.76-.66,4.34-1.83,5.36-4.62,2.59-7.06,5.46-14.03,8.52-20.89,1.11-2.49,1.01-4.31-.38-6.6-8.33-13.7-16.55-27.47-24.76-41.24-5.36-8.98-4.63-15.03,2.72-22.41,12.12-12.17,24.26-24.31,36.42-36.43,7.73-7.71,13.34-8.39,22.72-2.77,13.21,7.9,26.34,15.93,39.66,23.64,1.69.98,4.59,1.03,6.46.3,8.65-3.36,17.07-7.3,25.7-10.7,2.89-1.14,4.16-2.75,4.87-5.72,3.96-16.68,8.13-33.31,12.28-49.94C205.46,4,210.33.07,219.79.04c17.81-.05,35.62-.05,53.44,0,9.5.03,14.43,3.94,16.75,13.26,4.18,16.79,8.36,33.58,12.37,50.42.68,2.85,2.05,4.24,4.73,5.28,7.76,3,15.46,6.18,23.03,9.64,2.94,1.34,5.1,1.41,7.94-.35,12.27-7.59,24.7-14.92,37.08-22.33,9.73-5.82,15.17-5.17,23.1,2.75,12.04,12.02,24.07,24.05,36.08,36.09,7.75,7.77,8.48,13.39,2.91,22.71-7.57,12.66-15.28,25.24-22.65,38.01-.98,1.7-1.06,4.59-.34,6.47,3.06,8.08,6.73,15.92,9.84,23.98,1.12,2.91,2.76,4.17,5.72,4.87,16.21,3.85,32.33,8.08,48.56,11.84,7.11,1.65,12.25,5.13,14.74,12.12v63.57c-2.49,6.98-7.63,10.47-14.74,12.11-16.23,3.76-32.34,7.99-48.55,11.84-2.95.7-4.61,1.94-5.72,4.86-2.97,7.77-6.2,15.45-9.64,23.02-1.21,2.66-1.05,4.57.46,7.03,7.63,12.43,15.09,24.97,22.55,37.5,5.27,8.85,4.55,14.59-2.77,21.95-12.22,12.29-24.47,24.54-36.74,36.78-7.37,7.34-13.4,8.05-22.42,2.66-12.25-7.31-24.51-14.6-36.66-22.08-2.47-1.52-4.35-1.63-7-.41-8.14,3.73-16.4,7.23-24.74,10.49-2.9,1.13-4.16,2.76-4.86,5.73-3.84,16.21-8.07,32.33-11.82,48.56-1.64,7.11-5.13,12.24-12.11,14.74Zm-31.88-347.7c-55.62.09-101.09,45.66-101.01,101.22.09,55.63,45.65,101.11,101.2,101.02,55.62-.09,101.09-45.66,101.01-101.22-.09-55.63-45.65-101.11-101.2-101.02Z"/>
  </g>
</svg>