<?xml version="1.0" encoding="UTF-8"?>
<svg id="Capa_2" data-name="Capa 2" xmlns="http://www.w3.org/2000/svg" viewBox="0 0 499.05 499.1">
  <defs>
    <style>
      .cls-1 {
        fill: #8f8f8f;
      }
    </style>
  </defs>
  <g id="Capa_1-2" data-name="Capa 1">
    <g>
      <path class="cls-1" d="m106.27,499.1c-8.34-1.9-16.84-3.26-24.99-5.77C28.86,477.18-5.49,424.23.73,369.86c3.06-26.75,13.54-50.03,32.48-69.14,35.11-35.41,69.98-71.07,105.93-105.61,52.36-50.3,140.59-38.33,178.18,23.38.5.82.96,1.67,1.86,3.22-7.47,7.03-14.44,14.84-22.65,21.01-11.06,8.31-25.98,6.35-36.53-3.64-12.04-11.39-26.29-17.05-42.81-16.71-14.86.31-28.13,5.26-38.72,15.78-34.81,34.55-69.65,69.09-104.01,104.09-22.03,22.44-21.05,59.14,1.28,81.3,22.73,22.57,58.98,22.93,82.05.37,22.18-21.69,43.99-43.76,65.8-65.81,2.81-2.84,5.04-3.32,8.82-1.98,21.32,7.58,43.28,9.67,65.72,6.82.8-.1,1.61-.1,3.46-.21-1.74,1.83-2.87,3.08-4.07,4.27-31.92,31.93-63.94,63.77-95.75,95.82-19.94,20.08-43.61,32.31-71.82,35.49-.76.09-1.49.52-2.23.79h-21.44Z"/>
      <path class="cls-1" d="m499.05,127.76c-1.93,8.5-3.39,17.13-5.89,25.46-4.87,16.26-13.16,30.86-25.08,42.91-35.75,36.14-71.28,72.53-107.96,107.72-45.64,43.8-120.69,41.16-164.08-4.87-5.96-6.32-10.77-13.72-15.28-19.53,7.36-8.03,13.34-16.12,20.85-22.38,11.01-9.17,26.59-7.52,37.72,2.86,9.57,8.93,20.62,14.52,33.62,16.13,19.1,2.37,35.65-3.11,49.35-16.62,15.61-15.4,31.04-30.98,46.54-46.48,18.26-18.26,36.71-36.34,54.74-54.83,30.91-31.69,17.53-84.5-24.61-96.92-21.89-6.45-41.62-1.52-57.95,14.38-22.22,21.64-43.99,43.75-65.84,65.78-2.38,2.4-4.26,2.93-7.53,1.74-21.6-7.83-43.88-9.9-66.65-7.23-.73.09-1.47.13-2.98.26,1.21-1.39,1.88-2.26,2.65-3.02,33.19-33.19,66.12-66.65,99.66-99.49,52.47-51.38,137.39-42.65,178.68,18.02,10.59,15.56,16.95,32.76,19.14,51.49.13,1.09.59,2.13.89,3.2,0,7.15,0,14.29,0,21.44Z"/>
    </g>
  </g>
</svg>