<?xml version="1.0" encoding="UTF-8"?>
<svg id="Capa_2" data-name="Capa 2" xmlns="http://www.w3.org/2000/svg" viewBox="0 0 428.62 360.78">
  <defs>
    <style>
      .cls-1 {
        fill: #8f8f8f;
      }
    </style>
  </defs>
  <g id="Capa_1-2" data-name="Capa 1">
    <path class="cls-1" d="m66.75,158.18h6.59c110.77,0,221.53-.01,332.3.05,3.31,0,6.77.16,9.88,1.29,8.8,3.2,14.22,13.62,12.91,23.9-1.41,11.12-8.61,18.94-18.06,19.57-1.97.13-3.95.1-5.93.1-110.31,0-220.62,0-330.93,0-1.8,0-3.59,0-6.64,0,1.85,2.31,2.96,3.79,4.16,5.17,32.27,37.37,64.53,74.75,96.84,112.06,4.14,4.78,7.17,10.06,7.25,17.02.11,9.75-3.62,17.07-11.24,21.15-7.41,3.97-14.53,2.69-20.9-3.33-1.29-1.22-2.42-2.67-3.61-4.04-43.68-50.56-87.36-101.12-131.04-151.68-11.06-12.8-11.1-24.76-.12-37.47C52.53,110.66,96.87,59.36,141.17,8.02c5.56-6.45,11.91-9.61,19.8-7.24,14.14,4.26,19.38,23.74,9.82,36.55-1.29,1.73-2.73,3.32-4.12,4.94-31.84,36.87-63.69,73.73-95.53,110.6-1.17,1.35-2.29,2.76-4.39,5.31Z"/>
  </g>
</svg>