<?xml version="1.0" encoding="UTF-8"?>
<svg id="Capa_2" data-name="Capa 2" xmlns="http://www.w3.org/2000/svg" viewBox="0 0 488.05 255.54">
  <defs>
    <style>
      .cls-1 {
        fill: #8f8f8f;
      }
    </style>
  </defs>
  <g id="Capa_1-2" data-name="Capa 1">
    <path class="cls-1" d="m488.05,27.65c-2.4,7.52-7.66,12.86-13.24,18.14-70.74,66.9-141.42,133.86-212.05,200.89-7.3,6.93-15.35,11.03-25.36,7.67-3.91-1.31-7.76-3.78-10.78-6.63C153.87,178.99,81.24,110.16,8.62,41.31.09,33.22-2.17,23.13,2.12,13.68,6.19,4.69,15.24-.67,25.19.07c6.15.46,11.08,3.41,15.47,7.58,41.03,38.9,82.1,77.78,123.15,116.67,25.71,24.36,51.42,48.73,77.13,73.09.91.86,1.87,1.67,3.03,2.7,1.25-1.09,2.46-2.06,3.58-3.13,65.73-62.26,131.78-124.19,196.95-187.03,15.9-15.34,37.8-11.75,43.55,9.13v8.58Z"/>
  </g>
</svg>