<?xml version="1.0" encoding="UTF-8"?>
<svg id="Capa_2" data-name="Capa 2" xmlns="http://www.w3.org/2000/svg" viewBox="0 0 329.74 480">
  <defs>
    <style>
      .cls-1 {
        fill: #8f8f8f;
      }
    </style>
  </defs>
  <g id="Capa_1-2" data-name="Capa 1">
    <path class="cls-1" d="m318.64,480h-6.56c-3.42-2.63-7.18-4.92-10.21-7.94-44.38-44.23-88.68-88.54-132.93-132.9-1.28-1.28-1.89-3.24-2.82-4.88-3.16,2.25-4.09,3.73-5.29,4.94-44.18,44.21-88.36,88.42-132.64,132.54-3.14,3.13-7.01,5.52-10.53,8.25h-6.56C2.73,476.9,0,470.67,0,462.06.11,313.98.08,165.91.08,17.84.08,4.95,5.04,0,17.93,0,115.88,0,213.83,0,311.78,0c12.89,0,17.88,4.96,17.88,17.81,0,148.07-.03,296.15.08,444.22,0,8.63-2.74,14.85-11.1,17.97Z"/>
  </g>
</svg>