<?xml version="1.0" encoding="UTF-8"?>
<svg id="Capa_2" data-name="Capa 2" xmlns="http://www.w3.org/2000/svg" viewBox="0 0 480.11 480">
  <defs>
    <style>
      .cls-1 {
        fill: #8f8f8f;
      }
    </style>
  </defs>
  <g id="Capa_1-2" data-name="Capa 1">
    <path class="cls-1" d="m0,325.3v-10.31c5.14-16.25,16.47-22.24,33.13-21.81,25.44.66,50.91.17,76.37.17h9.67c8.89-35.56,17.72-70.89,26.68-106.73-2.42,0-4.12,0-5.82,0-20.15,0-40.3.13-60.44-.08-14.86-.15-26.26-12.04-26.18-26.8.08-14.95,11.81-26.38,27.59-26.47,24.36-.14,48.73-.04,73.09-.04,1.68,0,3.37,0,4.93,0,.48-1.53.87-2.56,1.13-3.61,8.83-35.4,17.51-70.84,26.64-106.16,1.39-5.4,4-11.05,7.67-15.12C197.89,4.55,203.48,2.7,208.12,0c3.44,0,6.87,0,10.31,0,.22.21.39.53.65.62,17.36,5.99,23.73,17.79,19.27,35.69-7.69,30.87-15.38,61.74-23.06,92.61-.32,1.28-.47,2.6-.73,4.05,1.07.12,1.68.25,2.29.25,32.96.01,65.91-.05,98.87.11,3.56.02,3.98-1.91,4.61-4.41,8.49-34.04,17.36-67.99,25.34-102.16C348.77,13.45,354.89,3.88,368.43,0h9.37c19.4,5.28,25.16,21.67,20.2,38.62-6.3,21.54-11.07,43.52-16.49,65.31-2.4,9.61-4.79,19.23-7.31,29.31,2.35,0,4.05,0,5.75,0,23.9,0,47.8.01,71.7,0,8.01,0,15.18,2.26,20.72,8.2,7.74,8.31,9.87,18.07,5.54,28.59-4.31,10.49-12.58,16.38-23.97,16.48-29.05.26-58.11.11-87.17.12-1.86,0-3.72,0-5.95,0-8.88,35.54-17.71,70.88-26.67,106.73,2.41,0,4.11,0,5.81,0,20.31.01,40.62-.14,60.92.1,14.31.17,25.62,12.01,25.71,26.31.09,15.41-11.71,26.87-28.09,26.95-24.21.11-48.43.03-72.64.03-1.68,0-3.35,0-4.98,0-.5,1.87-.89,3.22-1.23,4.58-8.99,35.85-18,71.7-26.94,107.56-1.49,5.96-4.33,11.01-9.07,14.93-8.78,7.26-20.91,8.18-30.64,2.38-9.82-5.85-14.97-17.25-12.26-28.54,5.39-22.44,11.09-44.81,16.66-67.21,2.74-11.02,5.47-22.05,8.37-33.7h-6.06c-31.09,0-62.17.09-93.26-.11-4.34-.03-6.08,1.05-7.15,5.46-8.61,35.46-17.43,70.88-26.5,106.23-1.16,4.53-3.51,9.14-6.49,12.73-7.77,9.35-21.16,11.48-31.99,5.86-11.13-5.78-16.48-18.09-13.27-31.04,7.78-31.33,15.65-62.64,23.48-93.96.39-1.58.65-3.19,1.06-5.18-2.23,0-3.93,0-5.63,0-23.9,0-47.8.05-71.7-.02-13.76-.05-23.01-6.9-27.35-19.9-.18-.54-.6-1.01-.9-1.52Zm305.8-138.51h-105.01c-8.86,35.42-17.69,70.76-26.59,106.35h105.01c8.85-35.39,17.66-70.62,26.59-106.35Z"/>
  </g>
</svg>