<?xml version="1.0" encoding="UTF-8"?>
<svg id="Capa_2" data-name="Capa 2" xmlns="http://www.w3.org/2000/svg" viewBox="0 0 480 407.4">
  <defs>
    <style>
      .cls-1 {
        fill: #8f8f8f;
      }
    </style>
  </defs>
  <g id="Capa_1-2" data-name="Capa 1">
    <g>
      <path class="cls-1" d="m290.01,34.68H15.38C6.89,34.68,0,26.92,0,17.34S6.89,0,15.38,0h274.64c8.49,0,15.38,7.76,15.38,17.34s-6.89,17.34-15.38,17.34Z"/>
      <path class="cls-1" d="m464.33,159.06H15.67c-8.65,0-15.67-7.5-15.67-16.76s7.01-16.76,15.67-16.76h448.67c8.65,0,15.67,7.5,15.67,16.76s-7.01,16.76-15.67,16.76Z"/>
      <path class="cls-1" d="m290.01,283.02H15.38c-8.49,0-15.38-7.76-15.38-17.34s6.89-17.34,15.38-17.34h274.64c8.49,0,15.38,7.76,15.38,17.34s-6.89,17.34-15.38,17.34Z"/>
      <path class="cls-1" d="m464.33,407.4H15.67c-8.65,0-15.67-7.5-15.67-16.76s7.01-16.76,15.67-16.76h448.67c8.65,0,15.67,7.5,15.67,16.76s-7.01,16.76-15.67,16.76Z"/>
    </g>
  </g>
</svg>