<?xml version="1.0" encoding="UTF-8"?>
<svg id="Capa_2" data-name="Capa 2" xmlns="http://www.w3.org/2000/svg" viewBox="0 0 479.66 124.89">
  <defs>
    <style>
      .cls-1 {
        fill: #8f8f8f;
      }
    </style>
  </defs>
  <g id="Capa_1-2" data-name="Capa 1">
    <g>
      <path class="cls-1" d="m62.64,0c34.42.02,62.23,27.86,62.23,62.31,0,34.39-27.93,62.52-62.14,62.58C28.44,124.95-.15,96.35,0,62.14.15,27.9,28.3-.02,62.64,0Z"/>
      <path class="cls-1" d="m417.4,0c34.22.05,62.41,28.35,62.26,62.5-.15,34.16-28.43,62.36-62.55,62.39-34.42.03-62.36-28.21-62.29-62.95C354.9,27.63,382.87-.05,417.4,0Z"/>
      <path class="cls-1" d="m177.63,62.51C177.55,27.88,205.19.03,239.68,0c34.62-.03,62.3,27.59,62.35,62.2.05,34.58-27.7,62.62-62.03,62.69-34.36.07-62.29-27.86-62.37-62.37Z"/>
    </g>
  </g>
</svg>