<?xml version="1.0" encoding="UTF-8"?>
<svg id="Capa_2" data-name="Capa 2" xmlns="http://www.w3.org/2000/svg" viewBox="0 0 490 432.83">
  <defs>
    <style>
      .cls-1 {
        fill: #b0b0b0;
      }
    </style>
  </defs>
  <g id="Capa_1-2" data-name="Capa 1">
    <path class="cls-1" d="m0,150.38c0-6.7,0-13.4,0-20.1.31-1.86.7-3.72.91-5.6C5.38,84.39,21.46,50.04,54.37,25.39,86.67,1.2,123.04-5.72,162.12,4.7c28.4,7.57,50.12,25.16,67.61,48.25,5.43,7.17,10.19,14.85,15.11,22.08,6.69-9.36,12.81-19.09,20.08-27.86C287.58,19.87,316.06,2.72,352.08.42c57.39-3.67,109.91,31.85,128.49,86.38,17.75,52.1,10.08,100.73-19.96,146.3-16.96,25.74-37.52,48.5-60.4,68.89-47.38,42.22-95.47,83.64-143.31,125.34-8.43,7.35-15.3,7.29-23.78-.02-38.05-32.79-76.17-65.5-114.06-98.48-28.9-25.15-56.75-51.41-80.01-82.07-15.44-20.35-27.95-42.29-34.02-67.33-2.31-9.53-3.4-19.37-5.04-29.06Z"/>
  </g>
</svg>