<?xml version="1.0" encoding="UTF-8"?>
<svg id="Capa_2" data-name="Capa 2" xmlns="http://www.w3.org/2000/svg" viewBox="0 0 493.48 352.45">
  <defs>
    <style>
      .cls-1 {
        fill: #8f8f8f;
      }
    </style>
  </defs>
  <g id="Capa_1-2" data-name="Capa 1">
    <g>
      <path class="cls-1" d="m2.45,34.66c8.9,5.93,16.37,10.89,23.83,15.86,62.72,41.81,125.45,83.61,188.16,125.43,21.83,14.56,42.68,14.63,64.62.02,67.91-45.25,135.8-90.53,203.7-135.8,2.26-1.51,4.54-2.99,7.94-5.22,1,6.4,2.61,11.93,2.62,17.46.16,82.57.26,165.15.03,247.72-.08,29.42-23.58,52.17-53.4,52.25-55.43.15-110.85.04-166.28.04-73.04,0-146.09.04-219.13-.02-28.23-.02-49.52-18.13-53.97-45.78-.52-3.24-.53-6.58-.54-9.87C0,216.38-.05,136.01.11,55.63c.01-6.63,1.44-13.26,2.34-20.97Z"/>
      <path class="cls-1" d="m26.01,7.76C35.32,2.18,44.58,0,54.49,0c49.72.03,99.45.01,149.17.01,78.35,0,156.7.02,235.05-.02,10.06,0,19.52,1.93,28.84,7.55-2.06,1.49-3.6,2.68-5.21,3.76-67.12,44.76-134.25,89.5-201.38,134.25-11.88,7.92-16.57,7.9-28.44-.02C165.42,100.8,98.3,56.05,31.19,11.31c-1.51-1.01-2.99-2.05-5.18-3.55Z"/>
    </g>
  </g>
</svg>