<?xml version="1.0" encoding="UTF-8"?>
<svg id="Capa_2" data-name="Capa 2" xmlns="http://www.w3.org/2000/svg" viewBox="0 0 399.8 480">
  <defs>
    <style>
      .cls-1 {
        fill: #8f8f8f;
      }
    </style>
  </defs>
  <g id="Capa_1-2" data-name="Capa 1">
    <g>
      <path class="cls-1" d="m191.52,480c-6.99-2.04-14.27-3.4-20.91-6.25-22.85-9.82-37.11-27.27-43.57-51.19-.16-.59-.14-1.22-.24-2.2h146.41c-1.63,9.06-5.12,17.3-10.1,24.87-12.51,19.02-29.99,30.49-52.59,33.97-.73.11-1.42.53-2.12.8h-16.88Z"/>
      <path class="cls-1" d="m199.94,400.07c-54.22,0-108.43.02-162.65-.01-18.67-.01-32.72-10.45-36.38-27.53-3.03-14.09,1.59-25.82,12.46-35.17,11.35-9.77,20.75-21.16,28.31-34.08,12.52-21.41,18.3-44.61,18.36-69.31.05-19.22-.22-38.44.14-57.65,1.22-65.86,50.54-123.07,115.4-133.93,3.58-.6,4.7-1.77,4.55-5.3-.26-5.93-.2-11.88,0-17.81C180.49,8.45,189.08.11,199.74,0c10.87-.11,19.68,8.26,20.06,19.31.22,6.24.18,12.5.03,18.75-.07,2.75.92,3.71,3.63,4.19,60.3,10.74,105.6,56.88,114.94,117.32,1.19,7.68,1.3,15.56,1.43,23.35.35,21.08-.47,42.23.85,63.24,2.25,35.76,17.61,65.64,44.21,89.59,7.82,7.05,13.92,14.84,14.79,25.66,1.76,21.84-13.78,38.49-36.14,38.64-21.09.14-42.18.03-63.28.03-33.44,0-66.87,0-100.31,0Z"/>
    </g>
  </g>
</svg>