<?xml version="1.0" encoding="UTF-8"?>
<svg id="Capa_2" data-name="Capa 2" xmlns="http://www.w3.org/2000/svg" viewBox="0 0 448.67 448.6">
  <defs>
    <style>
      .cls-1 {
        fill: #8f8f8f;
      }
    </style>
  </defs>
  <g id="Capa_1-2" data-name="Capa 1">
    <path class="cls-1" d="m448.67,228.74c-2.61,6.4-4.26,13.46-8.04,19.08-8.22,12.23-20.8,16.7-35.21,16.69-43.08-.03-86.17-.01-129.25,0-9.61,0-11.75,2.16-11.75,11.88,0,43.08,0,86.15,0,129.23,0,11.32-2.72,21.77-10.83,30.08-12.03,12.33-26.4,15.83-42.85,10.48-13.75-4.47-24.77-18.29-25.98-32.79-.38-4.5-.61-9.03-.61-13.54-.05-41.32-.02-82.65-.03-123.97,0-9.04-2.33-11.36-11.38-11.36-43.23,0-86.46,0-129.69,0-11.33,0-21.78-2.7-30.1-10.79-12.36-12.01-15.87-26.37-10.55-42.83,4.46-13.76,18.31-24.83,32.75-26.03,4.5-.37,9.03-.61,13.54-.62,41.33-.05,82.66-.02,123.99-.03,9.1,0,11.42-2.3,11.42-11.32,0-43.22,0-86.44.01-129.67,0-10.32,2.25-19.94,9.01-28.13,6.59-8,14.89-12.91,25.17-14.45.55-.08,1.05-.42,1.58-.65,2.92,0,5.84,0,8.77,0,.52.22,1.03.56,1.58.65,10.28,1.53,18.58,6.45,25.17,14.44,6.75,8.19,9.01,17.8,9.01,28.12.02,43.06,0,86.13.01,129.19,0,9.64,2.17,11.82,11.8,11.82,43.07,0,86.14.02,129.21,0,14.41,0,26.98,4.47,35.2,16.7,3.78,5.62,5.42,12.67,8.03,19.07v8.76Z"/>
  </g>
</svg>