<?xml version="1.0" encoding="UTF-8"?>
<svg id="Capa_2" data-name="Capa 2" xmlns="http://www.w3.org/2000/svg" viewBox="0 0 493.07 296.03">
  <defs>
    <style>
      .cls-1 {
        fill: #8f8f8f;
      }
    </style>
  </defs>
  <g id="Capa_1-2" data-name="Capa 1">
    <g>
      <path class="cls-1" d="m493.07,184.57c-2.68,3.94-5.05,8.12-8.08,11.77-25.29,30.51-50.68,60.93-76.07,91.35-9.3,11.15-19.62,11.14-29.01-.1-26.33-31.52-52.55-63.13-78.91-94.62-4.87-5.82-6.9-11.99-3.45-19.04,3.39-6.92,9.31-9.67,16.92-9.59,13.8.14,27.6.04,41.4.04,1.72,0,3.45,0,5.41,0v-98.51c-2.15,0-4.03,0-5.91,0-45.73,0-91.46-.06-137.19.07-5.74.02-9.93-1.7-13.63-6.3-11.88-14.73-24.12-29.18-36.29-43.68-2.7-3.22-4.97-6.53-3.08-10.85C167.18.58,171.31,0,175.69,0c80.07.02,160.13,0,240.2.02,8.74,0,11.44,2.6,11.5,11.53.11,17.81.04,35.62.04,53.43,0,30.97,0,61.94,0,92.9v6.49h5.28c13,0,26.01.4,38.99-.13,10.19-.41,17.31,3.22,21.37,12.61v7.7Z"/>
      <path class="cls-1" d="m65.7,131.58c-16.26,0-31.81.2-47.34-.14-3.81-.09-8.12-1.13-11.25-3.19-8.62-5.66-9.41-16.17-2.33-24.71,16.38-19.76,32.85-39.44,49.29-59.16,10.17-12.2,20.31-24.42,30.53-36.58,8.43-10.04,19.53-10.23,27.88-.26,26.77,31.98,53.43,64.06,80.15,96.08,4.63,5.54,6.2,11.62,3,18.28-3.24,6.73-8.9,9.74-16.35,9.7-13.96-.07-27.92-.02-41.88-.02-1.73,0-3.47,0-5.52,0v98.51h6.18c45.57,0,91.13.07,136.7-.09,6.14-.02,10.48,1.9,14.39,6.77,11.65,14.51,23.71,28.68,35.68,42.93,2.83,3.37,5.02,6.89,3.01,11.33-2.05,4.51-6.27,4.93-10.62,4.93-79.74-.02-159.48,0-239.22-.02-9.88,0-12.26-2.41-12.26-12.69-.03-48.45-.01-96.91-.01-145.36,0-1.9,0-3.8,0-6.31Z"/>
    </g>
  </g>
</svg>