<?xml version="1.0" encoding="UTF-8"?>
<svg id="Capa_2" data-name="Capa 2" xmlns="http://www.w3.org/2000/svg" viewBox="0 0 374.06 498.72">
  <defs>
    <style>
      .cls-1 {
        fill: #8f8f8f;
      }
    </style>
  </defs>
  <g id="Capa_1-2" data-name="Capa 1">
    <path class="cls-1" d="m183.23,498.72c-5.58-4.82-11.66-9.18-16.68-14.53-41.42-44.16-79.39-91.06-111.18-142.72-19.69-32-36.94-65.23-47.24-101.6C-9.81,176.52,1.98,118.73,43.19,67.82,73.72,30.11,114.02,7.71,162.4,1.7c64.45-8,119.24,12.31,163.16,59.95,34.5,37.42,50.25,82.43,48.34,133.25-1.09,29.09-9.95,56.44-21.43,82.94-16.72,38.61-38.77,74.16-63.32,108.19-26.35,36.54-55.26,70.99-86.55,103.41-3.41,3.53-7.7,6.21-11.58,9.28h-7.8Zm97.45-311.92c-.03-51.49-42.26-93.65-93.7-93.52-51.34.12-93.23,41.98-93.4,93.34-.17,51.43,41.95,93.69,93.46,93.77,51.46.08,93.67-42.11,93.65-93.58Z"/>
  </g>
</svg>