<?xml version="1.0" encoding="UTF-8"?>
<svg id="Capa_2" data-name="Capa 2" xmlns="http://www.w3.org/2000/svg" viewBox="0 0 470 470.11">
  <defs>
    <style>
      .cls-1 {
        fill: #8f8f8f;
      }
    </style>
  </defs>
  <g id="Capa_1-2" data-name="Capa 1">
    <g>
      <path class="cls-1" d="m123.67,245.31c63.39,58.5,159.16,58.62,223.01-.3,5.53,3.36,11.43,6.58,16.94,10.37,67.97,46.79,103.69,111.35,106.36,193.94.43,13.46-6.96,20.78-20.29,20.78-143.13.01-286.27.01-429.4,0-13.01,0-20.71-7.39-20.28-20.23,3.03-88.87,43.02-156.09,118.86-202.19,1.12-.68,2.31-1.27,3.48-1.88.33-.17.7-.26,1.32-.49Z"/>
      <path class="cls-1" d="m108.44,126.45C108.39,56.9,165.26.04,234.9,0c69.68-.04,126.54,56.63,126.66,126.24.12,68.09-58.67,126.86-126.91,126.88-69.47.02-126.17-56.89-126.22-126.68Z"/>
    </g>
  </g>
</svg>