<?xml version="1.0" encoding="UTF-8"?>
<svg id="Capa_2" data-name="Capa 2" xmlns="http://www.w3.org/2000/svg" viewBox="0 0 480 491.3">
  <g id="Capa_1-2" data-name="Capa 1">
    <path d="m.24,491.3c11.36-13.39,22.66-26.84,34.11-40.16,49.92-58.07,99.89-116.09,149.83-174.14,1.04-1.2,2.01-2.46,3.19-3.92C125.02,182.35,62.7,91.67,0,.42,1.79.29,2.97.12,4.15.12c44.93-.01,89.87.03,134.8-.1,3.19,0,4.8,1.19,6.49,3.65,39.4,57.46,78.87,114.86,118.34,172.27.97,1.42,2,2.8,3.32,4.63,8.19-9.49,16.09-18.63,23.98-27.8,42.44-49.32,84.9-98.62,127.21-148.04,3.01-3.52,6.02-4.85,10.57-4.73,11.6.31,23.22.1,35.96.1-60.06,69.82-119.42,138.81-178.91,207.96,2.94,4.3,5.71,8.38,8.5,12.45,60.99,88.76,121.99,177.52,182.96,266.29.98,1.43,1.76,2.99,2.64,4.49h-142.97c-.56-.96-1.06-1.95-1.69-2.86-42.24-61.49-84.49-122.98-126.75-184.46-.69-1.01-1.55-1.9-2.51-3.06-1.49,1.69-2.77,3.1-4.01,4.55-36.07,41.92-72.15,83.82-108.2,125.76-17.18,19.99-34.28,40.05-51.42,60.08H.24ZM57.62,31.94c1.43,2.2,2.26,3.55,3.16,4.84,97.95,140.09,195.91,280.17,293.79,420.31,1.98,2.83,4.06,3.8,7.46,3.77,18.22-.17,36.45-.07,54.67-.09,1.52,0,3.04-.15,5.22-.27-1.25-1.96-2.11-3.42-3.07-4.8C322.08,317.3,225.28,178.95,128.71,40.43c-4.38-6.29-8.69-9.01-16.53-8.71-17.84.69-35.73.22-54.56.22Z"/>
  </g>
</svg>